<?xml version="1.0" encoding="us-ascii" standalone="no"?><svg xmlns="http://www.w3.org/2000/svg" xmlns:xlink="http://www.w3.org/1999/xlink" contentStyleType="text/css" height="506px" preserveAspectRatio="none" style="width:408px;height:506px;background:#FFFFFF;" version="1.1" viewBox="0 0 408 506" width="408px" zoomAndPan="magnify"><defs/><g><!--class doctores--><g id="elem_doctores"><rect codeLine="48" fill="#F1F1F1" height="118.4375" id="doctores" rx="2.5" ry="2.5" style="stroke:#181818;stroke-width:0.5;" width="102" x="7" y="7"/><ellipse cx="27.85" cy="23" fill="#ADD1B2" rx="11" ry="11" style="stroke:#181818;stroke-width:1.0;"/><path d="M26.7094,23.7969 L26.7094,26.2969 L31.0375,26.2969 L31.0375,25.375 Q31.0375,24.7656 31.2719,24.5 Q31.5219,24.2344 31.8969,24.2344 Q32.2719,24.2344 32.5063,24.5 Q32.7406,24.7656 32.7406,25.375 L32.7406,28 L24.7406,28 Q24.1156,28 23.85,27.7656 Q23.6,27.5313 23.6,27.1406 Q23.6,26.7656 23.8656,26.5313 Q24.1313,26.2969 24.7406,26.2969 L25.0063,26.2969 L25.0063,19.6406 L24.7406,19.6406 Q24.1156,19.6406 23.85,19.4063 Q23.6,19.1719 23.6,18.7813 Q23.6,18.4063 23.85,18.1719 Q24.1156,17.9375 24.7406,17.9375 L32.3656,17.9375 L32.3656,20.5313 Q32.3656,21.1406 32.1313,21.4063 Q31.9125,21.6563 31.5219,21.6563 Q31.1469,21.6563 30.9125,21.4063 Q30.6781,21.1406 30.6781,20.5313 L30.6781,19.6406 L26.7094,19.6406 L26.7094,22.0938 L28.1938,22.0938 Q28.1938,21.4375 28.3188,21.25 Q28.5844,20.8438 29.0531,20.8438 Q29.4281,20.8438 29.6625,21.1094 Q29.8969,21.3594 29.8969,21.9688 L29.8969,23.9375 Q29.8969,24.4844 29.7719,24.6719 Q29.5063,25.0625 29.0531,25.0625 Q28.5844,25.0625 28.3188,24.6563 Q28.1938,24.4688 28.1938,23.7969 L26.7094,23.7969 Z " fill="#000000"/><text fill="#000000" font-family="sans-serif" font-size="14" lengthAdjust="spacing" textLength="57" x="43.15" y="28.7285">Doctores</text><line style="stroke:#181818;stroke-width:0.5;" x1="8" x2="108" y1="39" y2="39"/><ellipse cx="18" cy="53.3047" fill="#84BE84" rx="3" ry="3" style="stroke:#038048;stroke-width:1.0;"/><text fill="#000000" font-family="sans-serif" font-size="14" lengthAdjust="spacing" textLength="76" x="27" y="57.5332">id_prof (PK)</text><line style="stroke:#181818;stroke-width:1.0;" x1="8" x2="108" y1="64.6094" y2="64.6094"/><text fill="#000000" font-family="sans-serif" font-size="14" lengthAdjust="spacing" textLength="48" x="13" y="83.1426">nombre</text><text fill="#000000" font-family="sans-serif" font-size="14" lengthAdjust="spacing" textLength="49" x="13" y="100.752">apellido</text><text fill="#000000" font-family="sans-serif" font-size="14" lengthAdjust="spacing" textLength="41" x="13" y="118.3613">correo</text></g><!--class pacientes--><g id="elem_pacientes"><rect codeLine="56" fill="#F1F1F1" height="136.0469" id="pacientes" rx="2.5" ry="2.5" style="stroke:#181818;stroke-width:0.5;" width="135" x="266.5" y="185"/><ellipse cx="299.95" cy="201" fill="#ADD1B2" rx="11" ry="11" style="stroke:#181818;stroke-width:1.0;"/><path d="M298.8094,201.7969 L298.8094,204.2969 L303.1375,204.2969 L303.1375,203.375 Q303.1375,202.7656 303.3719,202.5 Q303.6219,202.2344 303.9969,202.2344 Q304.3719,202.2344 304.6063,202.5 Q304.8406,202.7656 304.8406,203.375 L304.8406,206 L296.8406,206 Q296.2156,206 295.95,205.7656 Q295.7,205.5313 295.7,205.1406 Q295.7,204.7656 295.9656,204.5313 Q296.2313,204.2969 296.8406,204.2969 L297.1063,204.2969 L297.1063,197.6406 L296.8406,197.6406 Q296.2156,197.6406 295.95,197.4063 Q295.7,197.1719 295.7,196.7813 Q295.7,196.4063 295.95,196.1719 Q296.2156,195.9375 296.8406,195.9375 L304.4656,195.9375 L304.4656,198.5313 Q304.4656,199.1406 304.2313,199.4063 Q304.0125,199.6563 303.6219,199.6563 Q303.2469,199.6563 303.0125,199.4063 Q302.7781,199.1406 302.7781,198.5313 L302.7781,197.6406 L298.8094,197.6406 L298.8094,200.0938 L300.2938,200.0938 Q300.2938,199.4375 300.4188,199.25 Q300.6844,198.8438 301.1531,198.8438 Q301.5281,198.8438 301.7625,199.1094 Q301.9969,199.3594 301.9969,199.9688 L301.9969,201.9375 Q301.9969,202.4844 301.8719,202.6719 Q301.6063,203.0625 301.1531,203.0625 Q300.6844,203.0625 300.4188,202.6563 Q300.2938,202.4688 300.2938,201.7969 L298.8094,201.7969 Z " fill="#000000"/><text fill="#000000" font-family="sans-serif" font-size="14" lengthAdjust="spacing" textLength="62" x="318.05" y="206.7285">Pacientes</text><line style="stroke:#181818;stroke-width:0.5;" x1="267.5" x2="400.5" y1="217" y2="217"/><ellipse cx="277.5" cy="231.3047" fill="#84BE84" rx="3" ry="3" style="stroke:#038048;stroke-width:1.0;"/><text fill="#000000" font-family="sans-serif" font-size="14" lengthAdjust="spacing" textLength="109" x="286.5" y="235.5332">num_cedula (PK)</text><line style="stroke:#181818;stroke-width:1.0;" x1="267.5" x2="400.5" y1="242.6094" y2="242.6094"/><text fill="#000000" font-family="sans-serif" font-size="14" lengthAdjust="spacing" textLength="48" x="272.5" y="261.1426">nombre</text><text fill="#000000" font-family="sans-serif" font-size="14" lengthAdjust="spacing" textLength="49" x="272.5" y="278.752">apellido</text><text fill="#000000" font-family="sans-serif" font-size="14" lengthAdjust="spacing" textLength="66" x="272.5" y="296.3613">fecha_nac</text><text fill="#000000" font-family="sans-serif" font-size="14" lengthAdjust="spacing" textLength="51" x="272.5" y="313.9707">telefono</text></g><!--class cita--><g id="elem_cita"><rect codeLine="65" fill="#F1F1F1" height="118.4375" id="cita" rx="2.5" ry="2.5" style="stroke:#181818;stroke-width:0.5;" width="182" x="146" y="381"/><ellipse cx="220.25" cy="397" fill="#ADD1B2" rx="11" ry="11" style="stroke:#181818;stroke-width:1.0;"/><path d="M219.1094,397.7969 L219.1094,400.2969 L223.4375,400.2969 L223.4375,399.375 Q223.4375,398.7656 223.6719,398.5 Q223.9219,398.2344 224.2969,398.2344 Q224.6719,398.2344 224.9063,398.5 Q225.1406,398.7656 225.1406,399.375 L225.1406,402 L217.1406,402 Q216.5156,402 216.25,401.7656 Q216,401.5313 216,401.1406 Q216,400.7656 216.2656,400.5313 Q216.5313,400.2969 217.1406,400.2969 L217.4063,400.2969 L217.4063,393.6406 L217.1406,393.6406 Q216.5156,393.6406 216.25,393.4063 Q216,393.1719 216,392.7813 Q216,392.4063 216.25,392.1719 Q216.5156,391.9375 217.1406,391.9375 L224.7656,391.9375 L224.7656,394.5313 Q224.7656,395.1406 224.5313,395.4063 Q224.3125,395.6563 223.9219,395.6563 Q223.5469,395.6563 223.3125,395.4063 Q223.0781,395.1406 223.0781,394.5313 L223.0781,393.6406 L219.1094,393.6406 L219.1094,396.0938 L220.5938,396.0938 Q220.5938,395.4375 220.7188,395.25 Q220.9844,394.8438 221.4531,394.8438 Q221.8281,394.8438 222.0625,395.1094 Q222.2969,395.3594 222.2969,395.9688 L222.2969,397.9375 Q222.2969,398.4844 222.1719,398.6719 Q221.9063,399.0625 221.4531,399.0625 Q220.9844,399.0625 220.7188,398.6563 Q220.5938,398.4688 220.5938,397.7969 L219.1094,397.7969 Z " fill="#000000"/><text fill="#000000" font-family="sans-serif" font-size="14" lengthAdjust="spacing" textLength="25" x="240.75" y="402.7285">Cita</text><line style="stroke:#181818;stroke-width:0.5;" x1="147" x2="327" y1="413" y2="413"/><ellipse cx="157" cy="427.3047" fill="#84BE84" rx="3" ry="3" style="stroke:#038048;stroke-width:1.0;"/><text fill="#000000" font-family="sans-serif" font-size="14" lengthAdjust="spacing" textLength="104" x="166" y="431.5332">fecha_hora (PK)</text><line style="stroke:#181818;stroke-width:1.0;" x1="147" x2="327" y1="438.6094" y2="438.6094"/><polygon fill="#FFFF44" points="157,447.9141,161,451.9141,157,455.9141,153,451.9141" style="stroke:#B38D22;stroke-width:1.0;"/><text fill="#000000" font-family="sans-serif" font-size="14" lengthAdjust="spacing" textLength="135" x="166" y="457.1426">num_cedula (PK, FK)</text><polygon fill="#FFFF44" points="157,465.5234,161,469.5234,157,473.5234,153,469.5234" style="stroke:#B38D22;stroke-width:1.0;"/><text fill="#000000" font-family="sans-serif" font-size="14" lengthAdjust="spacing" textLength="102" x="166" y="474.752">id_prof (PK, FK)</text><polygon fill="#FFFF44" points="157,483.1328,161,487.1328,157,491.1328,153,487.1328" style="stroke:#B38D22;stroke-width:1.0;"/><text fill="#000000" font-family="sans-serif" font-size="14" lengthAdjust="spacing" textLength="156" x="166" y="492.3613">id_especialidad (PK, FK)</text></g><!--class especialidades--><g id="elem_especialidades"><rect codeLine="73" fill="#F1F1F1" height="83.2188" id="especialidades" rx="2.5" ry="2.5" style="stroke:#181818;stroke-width:0.5;" width="156" x="144" y="24.5"/><ellipse cx="172.05" cy="40.5" fill="#ADD1B2" rx="11" ry="11" style="stroke:#181818;stroke-width:1.0;"/><path d="M170.9094,41.2969 L170.9094,43.7969 L175.2375,43.7969 L175.2375,42.875 Q175.2375,42.2656 175.4719,42 Q175.7219,41.7344 176.0969,41.7344 Q176.4719,41.7344 176.7063,42 Q176.9406,42.2656 176.9406,42.875 L176.9406,45.5 L168.9406,45.5 Q168.3156,45.5 168.05,45.2656 Q167.8,45.0313 167.8,44.6406 Q167.8,44.2656 168.0656,44.0313 Q168.3313,43.7969 168.9406,43.7969 L169.2063,43.7969 L169.2063,37.1406 L168.9406,37.1406 Q168.3156,37.1406 168.05,36.9063 Q167.8,36.6719 167.8,36.2813 Q167.8,35.9063 168.05,35.6719 Q168.3156,35.4375 168.9406,35.4375 L176.5656,35.4375 L176.5656,38.0313 Q176.5656,38.6406 176.3313,38.9063 Q176.1125,39.1563 175.7219,39.1563 Q175.3469,39.1563 175.1125,38.9063 Q174.8781,38.6406 174.8781,38.0313 L174.8781,37.1406 L170.9094,37.1406 L170.9094,39.5938 L172.3938,39.5938 Q172.3938,38.9375 172.5188,38.75 Q172.7844,38.3438 173.2531,38.3438 Q173.6281,38.3438 173.8625,38.6094 Q174.0969,38.8594 174.0969,39.4688 L174.0969,41.4375 Q174.0969,41.9844 173.9719,42.1719 Q173.7063,42.5625 173.2531,42.5625 Q172.7844,42.5625 172.5188,42.1563 Q172.3938,41.9688 172.3938,41.2969 L170.9094,41.2969 Z " fill="#000000"/><text fill="#000000" font-family="sans-serif" font-size="14" lengthAdjust="spacing" textLength="95" x="188.95" y="46.2285">Especialidades</text><line style="stroke:#181818;stroke-width:0.5;" x1="145" x2="299" y1="56.5" y2="56.5"/><ellipse cx="155" cy="70.8047" fill="#84BE84" rx="3" ry="3" style="stroke:#038048;stroke-width:1.0;"/><text fill="#000000" font-family="sans-serif" font-size="14" lengthAdjust="spacing" textLength="130" x="164" y="75.0332">id_especialidad (PK)</text><line style="stroke:#181818;stroke-width:1.0;" x1="145" x2="299" y1="82.1094" y2="82.1094"/><text fill="#000000" font-family="sans-serif" font-size="14" lengthAdjust="spacing" textLength="48" x="150" y="100.6426">nombre</text></g><!--class doctor_especialidad--><g id="elem_doctor_especialidad"><rect codeLine="79" fill="#F1F1F1" height="83.2188" id="doctor_especialidad" rx="2.5" ry="2.5" style="stroke:#181818;stroke-width:0.5;" width="182" x="49" y="211.5"/><ellipse cx="73" cy="227.5" fill="#ADD1B2" rx="11" ry="11" style="stroke:#181818;stroke-width:1.0;"/><path d="M71.8594,228.2969 L71.8594,230.7969 L76.1875,230.7969 L76.1875,229.875 Q76.1875,229.2656 76.4219,229 Q76.6719,228.7344 77.0469,228.7344 Q77.4219,228.7344 77.6563,229 Q77.8906,229.2656 77.8906,229.875 L77.8906,232.5 L69.8906,232.5 Q69.2656,232.5 69,232.2656 Q68.75,232.0313 68.75,231.6406 Q68.75,231.2656 69.0156,231.0313 Q69.2813,230.7969 69.8906,230.7969 L70.1563,230.7969 L70.1563,224.1406 L69.8906,224.1406 Q69.2656,224.1406 69,223.9063 Q68.75,223.6719 68.75,223.2813 Q68.75,222.9063 69,222.6719 Q69.2656,222.4375 69.8906,222.4375 L77.5156,222.4375 L77.5156,225.0313 Q77.5156,225.6406 77.2813,225.9063 Q77.0625,226.1563 76.6719,226.1563 Q76.2969,226.1563 76.0625,225.9063 Q75.8281,225.6406 75.8281,225.0313 L75.8281,224.1406 L71.8594,224.1406 L71.8594,226.5938 L73.3438,226.5938 Q73.3438,225.9375 73.4688,225.75 Q73.7344,225.3438 74.2031,225.3438 Q74.5781,225.3438 74.8125,225.6094 Q75.0469,225.8594 75.0469,226.4688 L75.0469,228.4375 Q75.0469,228.9844 74.9219,229.1719 Q74.6563,229.5625 74.2031,229.5625 Q73.7344,229.5625 73.4688,229.1563 Q73.3438,228.9688 73.3438,228.2969 L71.8594,228.2969 Z " fill="#000000"/><text fill="#000000" font-family="sans-serif" font-size="14" lengthAdjust="spacing" textLength="130" x="89" y="233.2285">Doctor_Especialidad</text><line style="stroke:#181818;stroke-width:0.5;" x1="50" x2="230" y1="243.5" y2="243.5"/><line style="stroke:#181818;stroke-width:0.5;" x1="50" x2="230" y1="251.5" y2="251.5"/><polygon fill="#FFFF44" points="60,260.8047,64,264.8047,60,268.8047,56,264.8047" style="stroke:#B38D22;stroke-width:1.0;"/><text fill="#000000" font-family="sans-serif" font-size="14" lengthAdjust="spacing" textLength="102" x="69" y="270.0332">id_prof (PK, FK)</text><polygon fill="#FFFF44" points="60,278.4141,64,282.4141,60,286.4141,56,282.4141" style="stroke:#B38D22;stroke-width:1.0;"/><text fill="#000000" font-family="sans-serif" font-size="14" lengthAdjust="spacing" textLength="156" x="69" y="287.6426">id_especialidad (PK, FK)</text></g><!--link pacientes to cita--><g id="link_pacientes_cita"><path codeLine="84" d="M295.1266,328.1359 C284.8866,347.6759 285.8478,345.838 275.9078,364.798 " fill="none" id="pacientes-cita" style="stroke:#181818;stroke-width:1.0;stroke-dasharray:7.0,7.0;"/><line style="stroke:#181818;stroke-width:1.0;" x1="293.4403" x2="300.5263" y1="322.7363" y2="326.4497"/><line style="stroke:#181818;stroke-width:1.0;" x1="292.0478" x2="299.1337" y1="325.3935" y2="329.1069"/><line style="stroke:#181818;stroke-width:1.0;" x1="295.1266" x2="298.84" y1="328.1359" y2="321.05"/><line style="stroke:#181818;stroke-width:1.0;" x1="271.2646" x2="272.864" y1="373.6547" y2="383.5259"/><line style="stroke:#181818;stroke-width:1.0;" x1="271.2646" x2="262.236" y1="373.6547" y2="377.9541"/><line style="stroke:#181818;stroke-width:1.0;" x1="271.2646" x2="267.55" y1="373.6547" y2="380.74"/><ellipse cx="274.0505" cy="368.3407" fill="none" rx="4" ry="4" style="stroke:#181818;stroke-width:1.0;"/></g><!--link doctores to doctor_especialidad--><g id="link_doctores_doctor_especialidad"><path codeLine="85" d="M86.9626,132.3434 C99.4126,160.4234 103.52,169.6823 114.74,195.0123 " fill="none" id="doctores-doctor_especialidad" style="stroke:#181818;stroke-width:1.0;stroke-dasharray:7.0,7.0;"/><line style="stroke:#181818;stroke-width:1.0;" x1="81.6846" x2="88.998" y1="130.308" y2="127.0654"/><line style="stroke:#181818;stroke-width:1.0;" x1="82.9006" x2="90.214" y1="133.0505" y2="129.8079"/><line style="stroke:#181818;stroke-width:1.0;" x1="86.9626" x2="83.72" y1="132.3434" y2="125.03"/><line style="stroke:#181818;stroke-width:1.0;" x1="118.79" x2="127.5159" y1="204.1555" y2="209.04"/><line style="stroke:#181818;stroke-width:1.0;" x1="118.79" x2="116.5441" y1="204.1555" y2="213.9"/><line style="stroke:#181818;stroke-width:1.0;" x1="118.79" x2="122.03" y1="204.1555" y2="211.47"/><ellipse cx="116.36" cy="198.6696" fill="none" rx="4" ry="4" style="stroke:#181818;stroke-width:1.0;"/></g><!--link especialidades to doctor_especialidad--><g id="link_especialidades_doctor_especialidad"><path codeLine="86" d="M200.7582,114.9137 C187.0882,145.7537 178.9017,164.213 165.2417,195.043 " fill="none" id="especialidades-doctor_especialidad" style="stroke:#181818;stroke-width:1.0;stroke-dasharray:7.0,7.0;"/><line style="stroke:#181818;stroke-width:1.0;" x1="198.7222" x2="206.0359" y1="109.6359" y2="112.8778"/><line style="stroke:#181818;stroke-width:1.0;" x1="197.5065" x2="204.8202" y1="112.3786" y2="115.6204"/><line style="stroke:#181818;stroke-width:1.0;" x1="200.7582" x2="204" y1="114.9137" y2="107.6"/><line style="stroke:#181818;stroke-width:1.0;" x1="161.1907" x2="163.4357" y1="204.1858" y2="213.9306"/><line style="stroke:#181818;stroke-width:1.0;" x1="161.1907" x2="152.4643" y1="204.1858" y2="209.0694"/><line style="stroke:#181818;stroke-width:1.0;" x1="161.1907" x2="157.95" y1="204.1858" y2="211.5"/><ellipse cx="163.6213" cy="198.7001" fill="none" rx="4" ry="4" style="stroke:#181818;stroke-width:1.0;"/></g><!--link doctor_especialidad to cita--><g id="link_doctor_especialidad_cita"><path codeLine="87" d="M165.0048,301.6852 C178.2748,326.9952 183.4902,336.959 198.2002,365.009 " fill="none" id="doctor_especialidad-cita" style="stroke:#181818;stroke-width:1.0;stroke-dasharray:7.0,7.0;"/><line style="stroke:#181818;stroke-width:1.0;" x1="159.6048" x2="166.69" y1="300" y2="296.2852"/><line style="stroke:#181818;stroke-width:1.0;" x1="160.9978" x2="168.083" y1="302.657" y2="298.9422"/><line style="stroke:#181818;stroke-width:1.0;" x1="165.0048" x2="161.29" y1="301.6852" y2="294.6"/><line style="stroke:#181818;stroke-width:1.0;" x1="202.8445" x2="211.8737" y1="373.8651" y2="378.1634"/><line style="stroke:#181818;stroke-width:1.0;" x1="202.8445" x2="201.2463" y1="373.8651" y2="383.7366"/><line style="stroke:#181818;stroke-width:1.0;" x1="202.8445" x2="206.56" y1="373.8651" y2="380.95"/><ellipse cx="200.058" cy="368.5515" fill="none" rx="4" ry="4" style="stroke:#181818;stroke-width:1.0;"/></g><!--SRC=[dP5D3i8W48Ntd6AY6uq_b_1duwOtQ4QOfYILQIXTcDQxIofQQ1fDt9370D-Rnv1nsjrXSMJfs5Ap06n0XGrq0c03MkMrvG9MsMNj2xkTNmpVhfQym9ggIYlsKhArnE8X10LgXb9x7R3rUnUufhtbabHRuKzqGRB4tA3qsb551Pl4wA0T3XxIYu1_lIdPflZbn7SBv-5m6UTCYjJK93NwLb2DXv7xAReGib9I6ZzoofgcZgYlaUGnF9fEIkh-2p1EfE_tU-w6xnEVyOVYZA6OvFjoSwxToEq9]--></g></svg>