<?xml version="1.0" encoding="us-ascii" standalone="no"?><svg xmlns="http://www.w3.org/2000/svg" xmlns:xlink="http://www.w3.org/1999/xlink" contentStyleType="text/css" height="310px" preserveAspectRatio="none" style="width:286px;height:310px;background:#FFFFFF;" version="1.1" viewBox="0 0 286 310" width="286px" zoomAndPan="magnify"><defs/><g><!--class doctores--><g id="elem_doctores"><rect codeLine="16" fill="#F1F1F1" height="136.0469" id="doctores" rx="2.5" ry="2.5" style="stroke:#181818;stroke-width:0.5;" width="102" x="7" y="7"/><ellipse cx="27.85" cy="23" fill="#ADD1B2" rx="11" ry="11" style="stroke:#181818;stroke-width:1.0;"/><path d="M26.7094,23.7969 L26.7094,26.2969 L31.0375,26.2969 L31.0375,25.375 Q31.0375,24.7656 31.2719,24.5 Q31.5219,24.2344 31.8969,24.2344 Q32.2719,24.2344 32.5063,24.5 Q32.7406,24.7656 32.7406,25.375 L32.7406,28 L24.7406,28 Q24.1156,28 23.85,27.7656 Q23.6,27.5313 23.6,27.1406 Q23.6,26.7656 23.8656,26.5313 Q24.1313,26.2969 24.7406,26.2969 L25.0063,26.2969 L25.0063,19.6406 L24.7406,19.6406 Q24.1156,19.6406 23.85,19.4063 Q23.6,19.1719 23.6,18.7813 Q23.6,18.4063 23.85,18.1719 Q24.1156,17.9375 24.7406,17.9375 L32.3656,17.9375 L32.3656,20.5313 Q32.3656,21.1406 32.1313,21.4063 Q31.9125,21.6563 31.5219,21.6563 Q31.1469,21.6563 30.9125,21.4063 Q30.6781,21.1406 30.6781,20.5313 L30.6781,19.6406 L26.7094,19.6406 L26.7094,22.0938 L28.1938,22.0938 Q28.1938,21.4375 28.3188,21.25 Q28.5844,20.8438 29.0531,20.8438 Q29.4281,20.8438 29.6625,21.1094 Q29.8969,21.3594 29.8969,21.9688 L29.8969,23.9375 Q29.8969,24.4844 29.7719,24.6719 Q29.5063,25.0625 29.0531,25.0625 Q28.5844,25.0625 28.3188,24.6563 Q28.1938,24.4688 28.1938,23.7969 L26.7094,23.7969 Z " fill="#000000"/><text fill="#000000" font-family="sans-serif" font-size="14" lengthAdjust="spacing" textLength="57" x="43.15" y="28.7285">Doctores</text><line style="stroke:#181818;stroke-width:0.5;" x1="8" x2="108" y1="39" y2="39"/><ellipse cx="18" cy="53.3047" fill="#84BE84" rx="3" ry="3" style="stroke:#038048;stroke-width:1.0;"/><text fill="#000000" font-family="sans-serif" font-size="14" lengthAdjust="spacing" textLength="76" x="27" y="57.5332">id_prof (PK)</text><line style="stroke:#181818;stroke-width:1.0;" x1="8" x2="108" y1="64.6094" y2="64.6094"/><text fill="#000000" font-family="sans-serif" font-size="14" lengthAdjust="spacing" textLength="48" x="13" y="83.1426">nombre</text><text fill="#000000" font-family="sans-serif" font-size="14" lengthAdjust="spacing" textLength="49" x="13" y="100.752">apellido</text><text fill="#000000" font-family="sans-serif" font-size="14" lengthAdjust="spacing" textLength="79" x="13" y="118.3613">especialidad</text><text fill="#000000" font-family="sans-serif" font-size="14" lengthAdjust="spacing" textLength="41" x="13" y="135.9707">correo</text></g><!--class pacientes--><g id="elem_pacientes"><rect codeLine="25" fill="#F1F1F1" height="136.0469" id="pacientes" rx="2.5" ry="2.5" style="stroke:#181818;stroke-width:0.5;" width="135" x="144.5" y="7"/><ellipse cx="177.95" cy="23" fill="#ADD1B2" rx="11" ry="11" style="stroke:#181818;stroke-width:1.0;"/><path d="M176.8094,23.7969 L176.8094,26.2969 L181.1375,26.2969 L181.1375,25.375 Q181.1375,24.7656 181.3719,24.5 Q181.6219,24.2344 181.9969,24.2344 Q182.3719,24.2344 182.6063,24.5 Q182.8406,24.7656 182.8406,25.375 L182.8406,28 L174.8406,28 Q174.2156,28 173.95,27.7656 Q173.7,27.5313 173.7,27.1406 Q173.7,26.7656 173.9656,26.5313 Q174.2313,26.2969 174.8406,26.2969 L175.1063,26.2969 L175.1063,19.6406 L174.8406,19.6406 Q174.2156,19.6406 173.95,19.4063 Q173.7,19.1719 173.7,18.7813 Q173.7,18.4063 173.95,18.1719 Q174.2156,17.9375 174.8406,17.9375 L182.4656,17.9375 L182.4656,20.5313 Q182.4656,21.1406 182.2313,21.4063 Q182.0125,21.6563 181.6219,21.6563 Q181.2469,21.6563 181.0125,21.4063 Q180.7781,21.1406 180.7781,20.5313 L180.7781,19.6406 L176.8094,19.6406 L176.8094,22.0938 L178.2938,22.0938 Q178.2938,21.4375 178.4188,21.25 Q178.6844,20.8438 179.1531,20.8438 Q179.5281,20.8438 179.7625,21.1094 Q179.9969,21.3594 179.9969,21.9688 L179.9969,23.9375 Q179.9969,24.4844 179.8719,24.6719 Q179.6063,25.0625 179.1531,25.0625 Q178.6844,25.0625 178.4188,24.6563 Q178.2938,24.4688 178.2938,23.7969 L176.8094,23.7969 Z " fill="#000000"/><text fill="#000000" font-family="sans-serif" font-size="14" lengthAdjust="spacing" textLength="62" x="196.05" y="28.7285">Pacientes</text><line style="stroke:#181818;stroke-width:0.5;" x1="145.5" x2="278.5" y1="39" y2="39"/><ellipse cx="155.5" cy="53.3047" fill="#84BE84" rx="3" ry="3" style="stroke:#038048;stroke-width:1.0;"/><text fill="#000000" font-family="sans-serif" font-size="14" lengthAdjust="spacing" textLength="109" x="164.5" y="57.5332">num_cedula (PK)</text><line style="stroke:#181818;stroke-width:1.0;" x1="145.5" x2="278.5" y1="64.6094" y2="64.6094"/><text fill="#000000" font-family="sans-serif" font-size="14" lengthAdjust="spacing" textLength="48" x="150.5" y="83.1426">nombre</text><text fill="#000000" font-family="sans-serif" font-size="14" lengthAdjust="spacing" textLength="49" x="150.5" y="100.752">apellido</text><text fill="#000000" font-family="sans-serif" font-size="14" lengthAdjust="spacing" textLength="66" x="150.5" y="118.3613">fecha_nac</text><text fill="#000000" font-family="sans-serif" font-size="14" lengthAdjust="spacing" textLength="51" x="150.5" y="135.9707">telefono</text></g><!--class cita--><g id="elem_cita"><rect codeLine="34" fill="#F1F1F1" height="100.8281" id="cita" rx="2.5" ry="2.5" style="stroke:#181818;stroke-width:0.5;" width="161" x="54.5" y="203"/><ellipse cx="118.25" cy="219" fill="#ADD1B2" rx="11" ry="11" style="stroke:#181818;stroke-width:1.0;"/><path d="M117.1094,219.7969 L117.1094,222.2969 L121.4375,222.2969 L121.4375,221.375 Q121.4375,220.7656 121.6719,220.5 Q121.9219,220.2344 122.2969,220.2344 Q122.6719,220.2344 122.9063,220.5 Q123.1406,220.7656 123.1406,221.375 L123.1406,224 L115.1406,224 Q114.5156,224 114.25,223.7656 Q114,223.5313 114,223.1406 Q114,222.7656 114.2656,222.5313 Q114.5313,222.2969 115.1406,222.2969 L115.4063,222.2969 L115.4063,215.6406 L115.1406,215.6406 Q114.5156,215.6406 114.25,215.4063 Q114,215.1719 114,214.7813 Q114,214.4063 114.25,214.1719 Q114.5156,213.9375 115.1406,213.9375 L122.7656,213.9375 L122.7656,216.5313 Q122.7656,217.1406 122.5313,217.4063 Q122.3125,217.6563 121.9219,217.6563 Q121.5469,217.6563 121.3125,217.4063 Q121.0781,217.1406 121.0781,216.5313 L121.0781,215.6406 L117.1094,215.6406 L117.1094,218.0938 L118.5938,218.0938 Q118.5938,217.4375 118.7188,217.25 Q118.9844,216.8438 119.4531,216.8438 Q119.8281,216.8438 120.0625,217.1094 Q120.2969,217.3594 120.2969,217.9688 L120.2969,219.9375 Q120.2969,220.4844 120.1719,220.6719 Q119.9063,221.0625 119.4531,221.0625 Q118.9844,221.0625 118.7188,220.6563 Q118.5938,220.4688 118.5938,219.7969 L117.1094,219.7969 Z " fill="#000000"/><text fill="#000000" font-family="sans-serif" font-size="14" lengthAdjust="spacing" textLength="25" x="138.75" y="224.7285">Cita</text><line style="stroke:#181818;stroke-width:0.5;" x1="55.5" x2="214.5" y1="235" y2="235"/><ellipse cx="65.5" cy="249.3047" fill="#84BE84" rx="3" ry="3" style="stroke:#038048;stroke-width:1.0;"/><text fill="#000000" font-family="sans-serif" font-size="14" lengthAdjust="spacing" textLength="104" x="74.5" y="253.5332">fecha_hora (PK)</text><line style="stroke:#181818;stroke-width:1.0;" x1="55.5" x2="214.5" y1="260.6094" y2="260.6094"/><polygon fill="#FFFF44" points="65.5,269.9141,69.5,273.9141,65.5,277.9141,61.5,273.9141" style="stroke:#B38D22;stroke-width:1.0;"/><text fill="#000000" font-family="sans-serif" font-size="14" lengthAdjust="spacing" textLength="102" x="74.5" y="279.1426">id_prof (PK, FK)</text><polygon fill="#FFFF44" points="65.5,287.5234,69.5,291.5234,65.5,295.5234,61.5,291.5234" style="stroke:#B38D22;stroke-width:1.0;"/><text fill="#000000" font-family="sans-serif" font-size="14" lengthAdjust="spacing" textLength="135" x="74.5" y="296.752">num_cedula (PK, FK)</text></g><!--link doctores to cita--><g id="link_doctores_cita"><path codeLine="41" d="M90.5292,150.5625 C99.1592,170.3425 98.0407,167.7824 106.1007,186.2524 " fill="none" id="doctores-cita" style="stroke:#181818;stroke-width:1.0;stroke-dasharray:7.0,7.0;"/><line style="stroke:#181818;stroke-width:1.0;" x1="85.2633" x2="92.5958" y1="148.4958" y2="145.2967"/><line style="stroke:#181818;stroke-width:1.0;" x1="86.463" x2="93.7955" y1="151.2455" y2="148.0463"/><line style="stroke:#181818;stroke-width:1.0;" x1="90.5292" x2="87.33" y1="150.5625" y2="143.23"/><line style="stroke:#181818;stroke-width:1.0;" x1="110.1003" x2="118.7992" y1="195.4177" y2="200.3502"/><line style="stroke:#181818;stroke-width:1.0;" x1="110.1003" x2="107.8008" y1="195.4177" y2="205.1498"/><line style="stroke:#181818;stroke-width:1.0;" x1="110.1003" x2="113.3" y1="195.4177" y2="202.75"/><ellipse cx="107.7006" cy="189.9185" fill="none" rx="4" ry="4" style="stroke:#181818;stroke-width:1.0;"/></g><!--link pacientes to cita--><g id="link_pacientes_cita"><path codeLine="42" d="M179.4708,150.5625 C170.8408,170.3425 171.9593,167.7824 163.8993,186.2524 " fill="none" id="pacientes-cita" style="stroke:#181818;stroke-width:1.0;stroke-dasharray:7.0,7.0;"/><line style="stroke:#181818;stroke-width:1.0;" x1="177.4042" x2="184.7367" y1="145.2967" y2="148.4958"/><line style="stroke:#181818;stroke-width:1.0;" x1="176.2045" x2="183.537" y1="148.0463" y2="151.2455"/><line style="stroke:#181818;stroke-width:1.0;" x1="179.4708" x2="182.67" y1="150.5625" y2="143.23"/><line style="stroke:#181818;stroke-width:1.0;" x1="159.8997" x2="162.1992" y1="195.4177" y2="205.1498"/><line style="stroke:#181818;stroke-width:1.0;" x1="159.8997" x2="151.2008" y1="195.4177" y2="200.3502"/><line style="stroke:#181818;stroke-width:1.0;" x1="159.8997" x2="156.7" y1="195.4177" y2="202.75"/><ellipse cx="162.2994" cy="189.9185" fill="none" rx="4" ry="4" style="stroke:#181818;stroke-width:1.0;"/></g><!--SRC=[XP113e8m44NtFSK4DXg5IsZSkF46P6o7qAHqI2aB0zxT2LG5DswQ_t_J_sPAFjhuWEpCEdAWFWFimIG3em8uW3LL5xY6tUswbw0evF3StWE9m8wSiuP5Kj-HjYWEZLZD8H2hfrAK83VKLdIYT6-NC7veAqrcSFYNL9DkiFAeHKToLBFVW4usuipG8bBzygRXiAtFr-iTuJBVv3_3BBa0FZypJMN9uzollekiqXS0]--></g></svg>